<svg aria-hidden="true" style="position: absolute; width: 0; height: 0; overflow: hidden;" version="1.1" xmlns="http://www.w3.org/2000/svg" xmlns:xlink="http://www.w3.org/1999/xlink">
<defs>
<symbol id="icon-Nav-button" viewBox="0 0 32 32">
<path fill="#fff" style="fill: var(#A14F03 )" d="M30.359 14.359c0 7.93-6.429 14.359-14.359 14.359s-14.359-6.429-14.359-14.359c0-7.93 6.429-14.359 14.359-14.359s14.359 6.429 14.359 14.359z"></path>
<path fill="none" stroke="#000" style="stroke: var(--color2, #000)" stroke-linejoin="miter" stroke-linecap="butt" stroke-miterlimit="4" stroke-width="0.8205" d="M9.846 9.846h12.308"></path>
<path fill="none" stroke="#000" style="stroke: var(--color2, #000)" stroke-linejoin="miter" stroke-linecap="butt" stroke-miterlimit="4" stroke-width="0.8205" d="M9.846 13.949h12.308"></path>
<path fill="none" stroke="#000" style="stroke: var(--color2, #000)" stroke-linejoin="miter" stroke-linecap="butt" stroke-miterlimit="4" stroke-width="0.8205" d="M9.846 18.051h12.308"></path>
</symbol>
<symbol id="icon-Vector-2" viewBox="0 0 33 32">
<path d="M8.561 23.579c0 0 7.738-1.045 11.041-4.293s4.364-10.863 4.364-10.863-7.739 1.045-11.041 4.293c-3.301 3.248-4.364 10.863-4.364 10.863zM14.596 14.358c1.386-1.363 4.040-2.333 6.317-2.937-0.611 2.237-1.601 4.866-2.981 6.22-0.92 0.908-2.416 0.908-3.335 0-0.923-0.905-0.923-2.375 0-3.283zM16.263 0c-8.983 0-16.263 7.163-16.263 15.999 0 8.838 7.28 16.001 16.263 16.001 8.979 0 16.261-7.163 16.261-16.001s-7.282-15.999-16.261-15.999zM16.261 28.665c-7.109 0-12.874-5.67-12.874-12.666 0-6.995 5.763-12.666 12.874-12.666 7.109 0 12.875 5.67 12.875 12.666 0 6.995-5.766 12.666-12.875 12.666z"></path>
</symbol>
<symbol id="icon-Vector-3" viewBox="0 0 36 32">
<path d="M35.502 7.404l-4.259-3.253c-0.242-0.165-0.581-0.313-0.934-0.421-0.355-0.108-0.723-0.174-1.017-0.174h-12.258l1.436 8.889h10.821c0.294 0 0.662-0.066 1.015-0.174s0.694-0.258 0.934-0.42l4.259-3.257c0.242-0.162 0.362-0.377 0.362-0.594s-0.12-0.432-0.36-0.596zM15.241 0h-1.793c-0.495 0-0.897 0.398-0.897 0.889v6.222h-5.982c-0.298 0-0.663 0.066-1.017 0.176-0.355 0.107-0.694 0.254-0.934 0.42l-4.259 3.253c-0.242 0.162-0.36 0.379-0.36 0.596s0.118 0.43 0.36 0.596l4.259 3.257c0.24 0.162 0.579 0.311 0.934 0.418s0.719 0.174 1.017 0.174h5.982v15.111c0 0.491 0.402 0.889 0.897 0.889h1.793c0.495 0 0.897-0.398 0.897-0.889v-30.222c0-0.491-0.402-0.889-0.897-0.889z"></path>
</symbol>
<symbol id="icon-Vector-4" viewBox="0 0 31 32">
<path d="M30.343 28.963l-2.203-6.563h-2.417l1.342 6.4h-23.631l1.342-6.4h-2.417l-2.204 6.563c-0.559 1.67 0.432 3.037 2.204 3.037h25.78c1.772 0 2.763-1.366 2.203-3.037zM23.307 8c0-4.418-3.606-8-8.056-8s-8.056 3.582-8.056 8c0 7.64 8.056 16 8.056 16s8.056-8.36 8.056-16zM10.9 8.096c0-2.386 1.946-4.318 4.35-4.318s4.35 1.933 4.35 4.318c0 2.387-1.948 4.32-4.35 4.32s-4.35-1.934-4.35-4.32z"></path>
</symbol>
<symbol id="icon-Vector-5" viewBox="0 0 33 32">
<path d="M16.259 0c-8.967 0-16.259 7.178-16.259 16s7.292 16 16.259 16c8.963 0 16.257-7.178 16.257-16s-7.294-16-16.257-16zM30.125 16c0 3.122-1.077 6-2.872 8.3-0.508-0.39-1.048-1.445-0.54-2.538 0.513-1.1 0.647-3.647 0.528-4.638-0.112-0.99-0.635-3.375-2.056-3.398-1.419-0.020-2.393-0.482-3.236-2.138-1.749-3.447 3.284-4.108 1.534-6.015-0.489-0.537-3.019 2.203-3.39-1.448-0.024-0.262 0.229-0.653 0.569-1.060 5.494 1.817 9.463 6.928 9.463 12.937zM14.354 2.488c-0.332 0.637-1.207 0.895-1.739 1.373-1.158 1.032-1.656 0.888-2.279 1.878-0.628 0.99-2.654 2.415-2.654 3.132s1.023 1.56 1.534 1.397c0.511-0.167 1.861-0.157 2.654 0.117 0.794 0.277 6.628 0.553 4.769 5.407-0.589 1.543-3.172 1.283-3.859 3.838-0.103 0.375-0.461 1.977-0.483 2.5-0.042 0.81 0.583 3.863-0.212 3.863-0.798 0-2.943-2.732-2.943-3.227s-0.555-2.23-0.555-3.717c0-1.485-2.571-1.462-2.571-3.437 0-1.78 1.394-2.667 1.080-3.522-0.307-0.85-2.755-0.878-3.776-0.983 1.783-4.552 5.978-7.93 11.035-8.62zM11.897 28.95c0.833-0.433 0.918-0.993 1.673-1.022 0.864-0.038 1.566-0.332 2.54-0.543 0.864-0.185 2.41-1.048 3.77-1.158 1.148-0.092 3.412 0.058 4.022 1.148-2.193 1.435-4.823 2.272-7.644 2.272-1.522 0-2.989-0.248-4.361-0.697z"></path>
</symbol>
<symbol id="icon-Vector" viewBox="0 0 33 32">
<path fill="#fff" style="fill: var(--color1, #fff)" d="M11.231 30.935c-0.652-0.759-1.327-1.481-2.050-2.257-4.029-4.307-9.462-10.126-9.169-17.040 0.227-5.416 4.262-8.971 9.486-10.594 4.626-1.391 9.564-1.391 14.19 0 5.225 1.623 9.259 5.178 9.486 10.6 0.287 6.915-5.147 12.727-9.169 17.040-0.729 0.776-1.399 1.493-2.056 2.257l-0.556 0.646v0.053h-9.564l-0.598-0.688-0-0.018zM17.908 4.036v22.811c4.184-8.721 8.554-18.088 3.3-22.343v-0c-1.085-0.247-2.189-0.404-3.3-0.468v0zM15.481 27.001v-22.977c-1.116 0.055-2.226 0.202-3.317 0.438-5.38 4.254-0.926 13.74 3.317 22.515v0.024zM25.791 6.369c1.835 5.131-0.998 12.187-4.268 19.113 3.479-3.733 7.848-8.639 7.639-13.687-0.095-2.322-1.405-4.147-3.371-5.427v0.001zM11.93 25.773c-3.353-7.068-6.306-14.297-4.364-19.517-2.056 1.298-3.443 3.146-3.545 5.54-0.215 5.184 4.388 10.208 7.908 13.976v0z"></path>
</symbol>
<symbol id="icon-cross" viewBox="0 0 20 20">
<path d="M14.348 14.849c-0.469 0.469-1.229 0.469-1.697 0l-2.651-3.030-2.651 3.029c-0.469 0.469-1.229 0.469-1.697 0-0.469-0.469-0.469-1.229 0-1.697l2.758-3.15-2.759-3.152c-0.469-0.469-0.469-1.228 0-1.697s1.228-0.469 1.697 0l2.652 3.031 2.651-3.031c0.469-0.469 1.228-0.469 1.697 0s0.469 1.229 0 1.697l-2.758 3.152 2.758 3.15c0.469 0.469 0.469 1.229 0 1.698z"></path>
</symbol>
</defs>
</svg>
